<svg width="405" height="131" viewBox="0 0 405 131" fill="none" xmlns="http://www.w3.org/2000/svg">
<path d="M4.10849 28.9759C13.9741 19.0764 53.5945 -0.00974941 133.151 2.8413C232.597 6.40511 271 22.5 307.181 25.6" stroke="#E0CFBC" stroke-linecap="round"/>
<path d="M44.6377 103.578C31.4866 103.578 24.3133 97.7329 24.3133 82.5347C24.3133 64.8431 44.6377 52.1384 70.9398 43.9547C99.9821 34.9185 134.304 36.9402 148.651 36.9402" stroke="#E0CFBC" stroke-linecap="round"/>
<path d="M403.494 0.999998C404.282 10.8552 395.699 31.9847 355.073 37.6613C304.289 44.757 199.179 17.5567 142.49 17.5567C85.8013 17.5567 32.7003 22.7607 6.67325 64.8616C-8.67995 89.6967 10.2163 119.262 26.7505 126.358C43.2847 133.454 59.2612 130.119 64.543 116.897C66.905 110.984 65.3303 104.677 64.543 101.523" stroke="#E0CFBC" stroke-linecap="round"/>
</svg>
