<svg width="386" height="383" viewBox="0 0 386 383" fill="none" xmlns="http://www.w3.org/2000/svg">
<path d="M37.5 175.797C40 204.5 69.7088 220.362 105.391 210.075C117.382 206.619 152.37 187.116 130.415 175.796C102.406 161.356 81.406 215.57 74.5223 231.823C60.1971 265.646 80.9083 290.208 112.636 302.881C142.28 314.722 174.932 305.815 203.131 293.975C244.101 276.773 282.139 253.297 315.798 224.291C344.212 199.805 362.048 171.901 385.238 143.384" stroke="#E0CFBC" stroke-miterlimit="0" stroke-linecap="round" stroke-linejoin="bevel"/>
<path d="M212.147 304.991C253.117 287.789 291.155 264.313 324.814 235.307" stroke="#E0CFBC" stroke-miterlimit="0" stroke-linecap="round" stroke-linejoin="bevel"/>
<path d="M59.9988 242.839C47.0207 278.515 76.8385 306.579 98.1125 313.897" stroke="#E0CFBC" stroke-miterlimit="0" stroke-linecap="round" stroke-linejoin="bevel"/>
<path d="M101.009 198.585C105.687 191.862 116.62 179.467 122.934 183.677" stroke="#E0CFBC" stroke-linecap="round"/>
</svg>
